[Header]
FileType HTR
DataType HTRS
FileVersion 1
NumSegments 28
NumFrames 4
DataFrameRate 24
EulerRotationOrder ZYX
CalibrationUnits mm
RotationUnits Degrees
GlobalAxisofGravity Y
BoneLengthAxis Y
ScaleFactor 1.0
[SegmentNames&Hierarchy]
waist	GLOBAL
chest	waist
head	chest
joint2	chest
right_shoulder1	joint2
right_elbow1	right_shoulder1
right_wrist1	right_elbow1
right_hand1	right_wrist1
right_finger3	right_hand1
right_finger4	right_hand1
right_finger5	right_hand1
joint3	chest
right_shoulder2	joint3
right_elbow2	right_shoulder2
right_wrist2	right_elbow2
right_hand2	right_wrist2
right_finger6	right_hand2
right_finger7	right_hand2
right_finger8	right_hand2
Center_pelvis	waist
left_pelvs	Center_pelvis
left_leg	left_pelvs
left_knee	left_leg
left_foot	left_knee
right_pelvis	Center_pelvis
right_leg	right_pelvis
right_knee	right_leg
right_foot	right_knee
[BasePosition]
waist	0	0	0	179.9999991	0	91.33221985	1
chest	0	0	0	-2.307808268e-010	-1.984983424e-008	1.332219854	1
head	0	0	0	180	-1.481061187e-024	90	1
joint2	0	0	0	4.615476202e-010	-1.707085745e-006	90	1
right_shoulder1	0	0	0	1.916575325e-008	-1.983803253e-008	-88.02506599	1
right_elbow1	0	0	0	-180	-1.948815659e-008	-12.92899665	1
right_wrist1	0	0	0	3.256551172e-010	1.942478841e-008	1.920938916	1
right_hand1	0	0	0	136.2194085	85.17676588	-133.4832578	1
right_finger3	0	0	0	154.4596717	79.84057755	147.6247455	1
right_finger4	0	0	0	154.4596717	79.84057755	147.6247455	1
right_finger5	0	0	0	154.4596717	79.84057755	147.6247455	1
joint3	0	0	0	-180	-1.89575832e-022	90	1
right_shoulder2	0	0	0	6.774897105e-015	-7.012540931e-015	-88.02506599	1
right_elbow2	0	0	0	-180	-6.888863384e-015	-12.92899665	1
right_wrist2	0	0	0	-1.240805042e-012	-7.401196581e-011	1.920938916	1
right_hand2	0	0	0	136.2194085	85.17676588	-133.4832578	1
right_finger6	0	0	0	154.4596717	79.84057755	147.6247455	1
right_finger7	0	0	0	154.4596717	79.84057755	147.6247455	1
right_finger8	0	0	0	154.4596717	79.84057755	147.6247455	1
Center_pelvis	0	0	0	-180	-8.537716493e-007	89.87586122	1
left_pelvs	0	0	0	0	0	-1.456358634	1
left_leg	0	0	0	179.9999991	0	88.69804733	1
left_knee	0	0	0	-180	-7.863991589e-009	-2.076172838	1
left_foot	0	0	0	179.9999985	-3.055580289e-010	-90.77422016	1
right_pelvis	0	0	0	0	0	-2.39554958	1
right_leg	0	0	0	0	0	-87.75885638	1
right_knee	0	0	0	179.9999991	3.702652968e-022	-2.076172838	1
right_foot	0	0	0	180	-7.405305937e-025	-90.77422016	1
[waist]
19	0	-3.152148962	0	-11.48118973	0	0	1.0
20	0	-3.152148962	0	-11.48118973	0	0	1.0
21	0	-3.152148962	0	-11.48118973	0	0	1.0
22	0	-3.152148962	0	-11.48118973	0	0	1.0
[chest]
19	25.34221649	-0.2624226809	1.052387714	52.22753525	10.22970104	9.748950958	1.0
20	25.44427872	-0.2600966394	1.05286026	52.22753525	10.22970104	9.748950958	1.0
21	25.55106163	-0.2576630116	1.053354502	52.22753525	10.22970104	9.748950958	1.0
22	25.66215706	-0.2551310956	1.053868771	52.22753525	10.22970104	9.748950958	1.0
[head]
19	20.62318993	0.1433748305	1.492195129	-14.68319607	-27.44283867	6.885741711	1.0
20	20.62318993	0.1433748305	1.492195129	-14.68319607	-27.44283867	6.885741711	1.0
21	20.62318993	0.1433748305	1.492195129	-14.68319607	-27.44283867	6.885741711	1.0
22	20.62318993	0.1433748305	1.492195129	-14.68319607	-27.44283867	6.885741711	1.0
[joint2]
19	-1.657010078	17.01290512	0.01287616603	-10.35709095	-15.0103178	2.70999527	1.0
20	-1.657010078	17.01290512	0.01287616603	-10.35709095	-15.0103178	2.70999527	1.0
21	-1.657010078	17.01290512	0.01287616603	-10.35709095	-15.0103178	2.70999527	1.0
22	-1.657010078	17.01290512	0.01287616603	-10.35709095	-15.0103178	2.70999527	1.0
[right_shoulder1]
19	14.8228693	2.288765669	0.8478751183	0	-11.79370117	0	1.0
20	14.83578587	2.057232618	0.8617454767	0	-11.79370117	0	1.0
21	14.85125542	1.779903054	0.878359437	0	-11.79370117	0	1.0
22	14.8690033	1.461759567	0.8974183798	0	-11.79370117	0	1.0
[right_elbow1]
19	-13.64346027	1.083028078	-0.5017899871	-21.50616074	23.54195786	-37.46652603	1.0
20	-13.64346027	1.083028078	-0.5017899871	-21.67091179	24.39166832	-37.84557724	1.0
21	-13.64346027	1.083028078	-0.5017899871	-21.86825371	25.40945053	-38.29960251	1.0
22	-13.64346027	1.083028078	-0.5017899871	-22.09463692	26.57701683	-38.82044601	1.0
[right_wrist1]
19	-11.7275095	-0.146371156	0.1268961728	0	44.46120071	0	1.0
20	-11.6234293	-0.1223149598	0.2044722438	0	43.27800751	0	1.0
21	-11.50153637	-0.09414102882	0.2953271866	0	41.89228439	0	1.0
22	-11.37113476	-0.06400074065	0.3925231397	0	40.40984344	0	1.0
[right_hand1]
19	-7.870647907	-0.6475095749	0.1588415354	24.7511425	18.63298225	50.98558426	1.0
20	-7.870647907	-0.6475095749	0.1588415354	24.0083046	19.45877075	48.90290833	1.0
21	-7.870647907	-0.6475095749	0.1588415354	23.1383152	20.42591286	46.46372604	1.0
22	-7.870647907	-0.6475095749	0.1588415354	22.20760345	21.46055412	43.8543129	1.0
[right_finger3]
19	10.07661057	3.347557783	-1.489186764	-78.3791275	61.25396347	96.68160248	1.0
20	10.07661057	3.347557783	-1.489186764	-78.3791275	61.25396347	96.68160248	1.0
21	10.07661057	3.347557783	-1.489186764	-78.3791275	61.25396347	96.68160248	1.0
22	10.07661057	3.347557783	-1.489186764	-78.3791275	61.25396347	96.68160248	1.0
[right_finger4]
19	-1.201135993	3.376283169	11.27149582	-198.9912262	-2.457621098	60.21281433	1.0
20	-1.201135993	3.376283169	11.27149582	-198.9912262	-2.457621098	60.21281433	1.0
21	-1.201135993	3.376283169	11.27149582	-198.9912262	-2.457621098	60.21281433	1.0
22	-1.201135993	3.376283169	11.27149582	-198.9912262	-2.457621098	60.21281433	1.0
[right_finger5]
19	-6.853637218	4.493112087	-5.936321735	32.59261322	-12.32942677	103.8147736	1.0
20	-6.853637218	4.493112087	-5.936321735	32.59261322	-12.32942677	103.8147736	1.0
21	-6.853637218	4.493112087	-5.936321735	32.59261322	-12.32942677	103.8147736	1.0
22	-6.853637218	4.493112087	-5.936321735	32.59261322	-12.32942677	103.8147736	1.0
[joint3]
19	-1.657010078	-17.01289368	0.01287565939	-10.33717155	14.59749508	-2.632034063	1.0
20	-1.657010078	-17.01289368	0.01287565939	-10.33717155	14.59749508	-2.632034063	1.0
21	-1.657010078	-17.01289368	0.01287565939	-10.33717155	14.59749508	-2.632034063	1.0
22	-1.657010078	-17.01289368	0.01287565939	-10.33717155	14.59749508	-2.632034063	1.0
[right_shoulder2]
19	-15.0091629	-2.306197166	-0.8461450338	0	-34.23234558	0	1.0
20	-14.99621487	-2.072244167	-0.8602556586	0	-34.23234558	0	1.0
21	-14.98070526	-1.792015553	-0.8771573305	0	-34.23234558	0	1.0
22	-14.96291256	-1.470546603	-0.8965463042	0	-34.23234558	0	1.0
[right_elbow2]
19	13.02228546	-0.6429510117	0	11.54698849	42.67781448	14.43798161	1.0
20	13.02228546	-0.6429510117	0	11.42761612	41.98616409	14.25606918	1.0
21	13.02228546	-0.6429510117	0	11.28463173	41.1577034	14.03817368	1.0
22	13.02228546	-0.6429510117	0	11.12060356	40.20731735	13.78821278	1.0
[right_wrist2]
19	12.07422733	-0.3712292016	1.174467921	0	36.94539642	0	1.0
20	12.03877544	-0.3518653214	1.023544908	0	37.98026657	0	1.0
21	11.99725533	-0.3291869462	0.8467882276	0	39.19227982	0	1.0
22	11.95283699	-0.3049257696	0.6576951742	0	40.48888016	0	1.0
[right_hand2]
19	8.313048363	0.02588133886	-0.2132965624	0	0	0.5117756128	1.0
20	8.313048363	0.02588133886	-0.2132965624	0	0	-2.690821171	1.0
21	8.313048363	0.02588133886	-0.2132965624	0	0	-6.441612244	1.0
22	8.313048363	0.02588133886	-0.2132965624	0	0	-10.45418358	1.0
[right_finger6]
19	-10.07661057	-3.347557783	1.489186764	-82.56325531	41.54194641	91.40802002	1.0
20	-10.07661057	-3.347557783	1.489186764	-82.56325531	41.54194641	91.40802002	1.0
21	-10.07661057	-3.347557783	1.489186764	-82.56325531	41.54194641	91.40802002	1.0
22	-10.07661057	-3.347557783	1.489186764	-82.56325531	41.54194641	91.40802002	1.0
[right_finger7]
19	1.201135993	-3.376283169	-11.27149582	-178.3618011	19.07616615	162.3161011	1.0
20	1.201135993	-3.376283169	-11.27149582	-178.3618011	19.07616615	162.3161011	1.0
21	1.201135993	-3.376283169	-11.27149582	-178.3618011	19.07616615	162.3161011	1.0
22	1.201135993	-3.376283169	-11.27149582	-178.3618011	19.07616615	162.3161011	1.0
[right_finger8]
19	6.853637218	-4.493112087	5.936321735	28.57172203	20.40917206	52.71258163	1.0
20	6.853637218	-4.493112087	5.936321735	28.57172203	20.40917206	52.71258163	1.0
21	6.853637218	-4.493112087	5.936321735	28.57172203	20.40917206	52.71258163	1.0
22	6.853637218	-4.493112087	5.936321735	28.57172203	20.40917206	52.71258163	1.0
[Center_pelvis]
19	-4.950357437	-0.3614075482	2.050072193	0	25.67634773	0	1.0
20	-5.055673599	-0.3638077378	2.049584866	0	25.67634773	0	1.0
21	-5.164823055	-0.3662953079	2.049079657	0	25.67634773	0	1.0
22	-5.277233601	-0.3688572347	2.048559427	0	25.67634773	0	1.0
[left_pelvs]
19	11.5839653	-0.7614637613	-2.12276721	0	6.368044376	0	1.0
20	11.58733177	-0.6240577102	-2.121854782	0	6.368044376	0	1.0
21	11.59074688	-0.4846397042	-2.120928764	0	6.368044376	0	1.0
22	11.59415054	-0.3457133472	-2.120005846	0	6.368044376	0	1.0
[left_leg]
19	8.450808053e-008	-5.682914734	0.3641465604	0	3.365030289	0	1.0
20	8.450808053e-008	-5.682914734	0.3641465604	0	4.646532059	0	1.0
21	8.450808053e-008	-5.682914734	0.3641465604	0	5.946798325	0	1.0
22	8.450808053e-008	-5.682914734	0.3641465604	0	7.242478371	0	1.0
[left_knee]
19	-10.69747543	0.03457061574	-6.811455844e-009	0	-9.310558319	0	1.0
20	-10.69747543	0.03457061574	-6.811455844e-009	0	-7.596786022	0	1.0
21	-10.69747543	0.03457061574	-6.811455844e-009	0	-5.85792017	0	1.0
22	-10.69747543	0.03457061574	-6.811455844e-009	0	-4.125187874	0	1.0
[left_foot]
19	-14.54718971	-0.01193539705	1.933258442e-009	-23.95181274	-1.798151851	-4.04049778	1.0
20	-14.54718971	-0.01193539705	1.933258442e-009	-23.95181274	-1.798151851	-4.04049778	1.0
21	-14.54718971	-0.01193539705	1.933258442e-009	-23.95181274	-1.798151851	-4.04049778	1.0
22	-14.54718971	-0.01193539705	1.933258442e-009	-23.95181274	-1.798151851	-4.04049778	1.0
[right_pelvis]
19	-11.44770622	-0.3014355302	3.534707069	0	-9.894831657	0	1.0
20	-11.44433975	-0.1640293747	3.535619974	0	-9.894831657	0	1.0
21	-11.44092464	-0.02461130917	3.536545992	0	-9.894831657	0	1.0
22	-11.43752003	0.114315033	3.53746891	0	-9.894831657	0	1.0
[right_leg]
19	0.09169664979	-5.593489647	0.06310817599	0	-18.33289146	0	1.0
20	0.09169664979	-5.593489647	0.06310817599	0	-17.56618118	0	1.0
21	0.09169664979	-5.593489647	0.06310817599	0	-16.78824997	0	1.0
22	0.09169664979	-5.593489647	0.06310817599	0	-16.01305771	0	1.0
[right_knee]
19	10.69750977	-0.03459574655	-4.718447855e-015	0	-20.6281929	0	1.0
20	10.69750977	-0.03459574655	-4.718447855e-015	0	-19.67028809	0	1.0
21	10.69750977	-0.03459574655	-4.718447855e-015	0	-18.69835472	0	1.0
22	10.69750977	-0.03459574655	-4.718447855e-015	0	-17.72985268	0	1.0
[right_foot]
19	14.54718685	0.01191107463	1.774880243e-010	0	0	0	1.0
20	14.54718685	0.01191107463	1.774880243e-010	0	0	0	1.0
21	14.54718685	0.01191107463	1.774880243e-010	0	0	0	1.0
22	14.54718685	0.01191107463	1.774880243e-010	0	0	0	1.0
[EndOfFile]
